<svg width="233" height="30" viewBox="0 0 233 30" fill="none" xmlns="http://www.w3.org/2000/svg">
<path fill-rule="evenodd" clip-rule="evenodd" d="M146.577 23.1623C146.577 26.8114 143.634 30 139.865 30C136.628 30 132.9 28.4236 132.9 23.0398V6.79671C132.9 2.93829 135.677 0 139.776 0C143.677 0 146.577 2.9383 146.577 7.04223V8.70281H142.349V7.28992C142.349 5.63413 141.357 4.22386 139.74 4.22386C137.624 4.22386 137.126 5.67251 137.126 7.66538V22.7511C137.126 24.4478 137.788 25.7714 139.696 25.7714C140.856 25.7714 142.349 25.1146 142.349 22.7894V21.3408H146.577V23.1623Z" fill="black"/>
<path fill-rule="evenodd" clip-rule="evenodd" d="M153.864 0.248169H157.391L163.978 29.755H159.752L158.51 23.4105H152.748L151.504 29.755H147.278L153.864 0.248169ZM155.651 8.74385H155.564L153.494 19.4347H157.723L155.651 8.74385Z" fill="black"/>
<path fill-rule="evenodd" clip-rule="evenodd" d="M166.093 0.248169H172.435C174.758 0.248169 176.457 0.789784 177.909 2.32042C179.357 3.85062 179.815 5.71616 179.815 9.23705C179.815 11.8051 179.605 13.5499 178.611 15.1651C177.451 17.0712 175.583 18.2338 172.476 18.2338H170.325V29.755H166.093V0.248169ZM170.325 14.2528H172.356C175.793 14.2528 175.839 12.2264 175.839 9.28284C175.839 6.50284 175.839 4.22389 172.523 4.22389H170.325V14.2528Z" fill="black"/>
<path fill-rule="evenodd" clip-rule="evenodd" d="M182.258 29.7524H186.486V0.248169H182.258V29.7524Z" fill="black"/>
<path fill-rule="evenodd" clip-rule="evenodd" d="M193.947 4.22389H189.059V0.248169H203.067V4.22389H198.176V29.755H193.947V4.22389Z" fill="black"/>
<path fill-rule="evenodd" clip-rule="evenodd" d="M207.331 0.248169H210.852L217.442 29.755H213.218L211.974 23.4105H206.214L204.97 29.755H200.746L207.331 0.248169ZM209.112 8.74385H209.03L206.96 19.4347H211.184L209.112 8.74385Z" fill="black"/>
<path fill-rule="evenodd" clip-rule="evenodd" d="M219.864 0.248169H224.093V25.5259H232.461V29.755H219.864V0.248169Z" fill="black"/>
<path fill-rule="evenodd" clip-rule="evenodd" d="M17.0825 29.7392L32.6766 20.7377V14.043L17.0825 23.0502V29.7392Z" fill="#A02629"/>
<path fill-rule="evenodd" clip-rule="evenodd" d="M17.0825 9.37736V16.0694L32.6766 7.06266V0.370605L17.0825 9.37736Z" fill="#A02629"/>
<path fill-rule="evenodd" clip-rule="evenodd" d="M0 13.8999L15.5994 22.9045V16.2125L0 7.21051V13.8999Z" fill="#A02629"/>
<path fill-rule="evenodd" clip-rule="evenodd" d="M74.4826 13.4247H76.8819C79.8228 13.4247 80.2776 11.7668 80.2776 8.82541C80.2776 5.84133 79.7783 4.22872 76.6726 4.22872H74.4826V13.4247ZM70.2539 0.252991H77.0467C82.0599 0.252991 84.5015 3.1939 84.5015 8.90478C84.5015 12.3031 83.5482 14.7866 80.8615 16.2815L85.4151 29.7393H80.9396L77.0044 17.1528H74.4826V29.7393H70.2539V0.252991Z" fill="black"/>
<path fill-rule="evenodd" clip-rule="evenodd" d="M37.1622 4.22872H42.0502V29.7393H46.2727V4.22872H51.1633V0.252991H37.1622V4.22872Z" fill="black"/>
<path fill-rule="evenodd" clip-rule="evenodd" d="M63.3168 13.522H58.0991V0.252991H53.8766V29.7393H58.0991V17.25H63.3168V29.7393H67.5389V0.252991H63.3168V13.522Z" fill="black"/>
<path fill-rule="evenodd" clip-rule="evenodd" d="M87.4694 29.7393H91.6981V0.252991H87.4694V29.7393Z" fill="black"/>
<path fill-rule="evenodd" clip-rule="evenodd" d="M101.938 20.8372H101.855L98.4974 0.252991H94.0259L100.03 29.7393H103.756L109.8 0.252991H105.331L101.938 20.8372Z" fill="black"/>
<path fill-rule="evenodd" clip-rule="evenodd" d="M124.961 4.22872V0.252991H112.374V29.7393H124.961V25.5185H116.598V17.5003H123.885V13.522H116.598V4.22872H124.961Z" fill="black"/>
</svg>
